<mxfile host="65bd71144e">
    <diagram id="QmosgRDR2LgcRye5QxNB" name="Use Cases">
        <mxGraphModel dx="606" dy="485" grid="1" gridSize="10" guides="1" tooltips="1" connect="1" arrows="1" fold="1" page="1" pageScale="1" pageWidth="850" pageHeight="1100" math="0" shadow="0">
            <root>
                <mxCell id="0"/>
                <mxCell id="1" parent="0"/>
                <mxCell id="Qe1U-yOvpPULDO2mOXiQ-1" value="Recruitment" style="ellipse;whiteSpace=wrap;html=1;fillColor=#f8cecc;strokeColor=#b85450;" parent="1" vertex="1">
                    <mxGeometry x="420" y="280" width="120" height="80" as="geometry"/>
                </mxCell>
                <mxCell id="Qe1U-yOvpPULDO2mOXiQ-2" value="Login" style="ellipse;whiteSpace=wrap;html=1;" parent="1" vertex="1">
                    <mxGeometry x="420" y="140" width="120" height="80" as="geometry"/>
                </mxCell>
                <mxCell id="Qe1U-yOvpPULDO2mOXiQ-3" value="Notification" style="ellipse;whiteSpace=wrap;html=1;" parent="1" vertex="1">
                    <mxGeometry x="420" y="420" width="120" height="80" as="geometry"/>
                </mxCell>
                <mxCell id="Qe1U-yOvpPULDO2mOXiQ-4" value="AI" style="ellipse;whiteSpace=wrap;html=1;" parent="1" vertex="1">
                    <mxGeometry x="420" y="700" width="120" height="80" as="geometry"/>
                </mxCell>
                <mxCell id="Qe1U-yOvpPULDO2mOXiQ-5" value="Analytics" style="ellipse;whiteSpace=wrap;html=1;" parent="1" vertex="1">
                    <mxGeometry x="420" y="560" width="120" height="80" as="geometry"/>
                </mxCell>
                <mxCell id="Qe1U-yOvpPULDO2mOXiQ-15" style="edgeStyle=none;html=1;exitX=1;exitY=0.3333333333333333;exitDx=0;exitDy=0;exitPerimeter=0;entryX=0;entryY=0.5;entryDx=0;entryDy=0;" parent="1" source="Qe1U-yOvpPULDO2mOXiQ-6" target="Qe1U-yOvpPULDO2mOXiQ-2" edge="1">
                    <mxGeometry relative="1" as="geometry"/>
                </mxCell>
                <mxCell id="Qe1U-yOvpPULDO2mOXiQ-18" style="edgeStyle=none;html=1;exitX=1;exitY=0.3333333333333333;exitDx=0;exitDy=0;exitPerimeter=0;entryX=0;entryY=0.5;entryDx=0;entryDy=0;" parent="1" source="Qe1U-yOvpPULDO2mOXiQ-6" target="Qe1U-yOvpPULDO2mOXiQ-1" edge="1">
                    <mxGeometry relative="1" as="geometry"/>
                </mxCell>
                <mxCell id="Qe1U-yOvpPULDO2mOXiQ-19" style="edgeStyle=none;html=1;exitX=1;exitY=0.3333333333333333;exitDx=0;exitDy=0;exitPerimeter=0;" parent="1" source="Qe1U-yOvpPULDO2mOXiQ-6" target="Qe1U-yOvpPULDO2mOXiQ-3" edge="1">
                    <mxGeometry relative="1" as="geometry"/>
                </mxCell>
                <mxCell id="Qe1U-yOvpPULDO2mOXiQ-22" style="edgeStyle=none;html=1;exitX=1;exitY=0.3333333333333333;exitDx=0;exitDy=0;exitPerimeter=0;entryX=0;entryY=0.5;entryDx=0;entryDy=0;" parent="1" source="Qe1U-yOvpPULDO2mOXiQ-6" target="Qe1U-yOvpPULDO2mOXiQ-5" edge="1">
                    <mxGeometry relative="1" as="geometry"/>
                </mxCell>
                <mxCell id="Qe1U-yOvpPULDO2mOXiQ-26" style="edgeStyle=none;html=1;exitX=1;exitY=0.3333333333333333;exitDx=0;exitDy=0;exitPerimeter=0;entryX=0;entryY=0.5;entryDx=0;entryDy=0;" parent="1" source="Qe1U-yOvpPULDO2mOXiQ-6" target="Qe1U-yOvpPULDO2mOXiQ-4" edge="1">
                    <mxGeometry relative="1" as="geometry"/>
                </mxCell>
                <mxCell id="Qe1U-yOvpPULDO2mOXiQ-6" value="Admin" style="shape=umlActor;verticalLabelPosition=bottom;verticalAlign=top;html=1;outlineConnect=0;" parent="1" vertex="1">
                    <mxGeometry x="160" y="350" width="30" height="60" as="geometry"/>
                </mxCell>
                <mxCell id="Qe1U-yOvpPULDO2mOXiQ-21" style="edgeStyle=none;html=1;exitX=1;exitY=0.3333333333333333;exitDx=0;exitDy=0;exitPerimeter=0;" parent="1" source="Qe1U-yOvpPULDO2mOXiQ-7" target="Qe1U-yOvpPULDO2mOXiQ-1" edge="1">
                    <mxGeometry relative="1" as="geometry"/>
                </mxCell>
                <mxCell id="Qe1U-yOvpPULDO2mOXiQ-7" value="candidate" style="shape=umlActor;verticalLabelPosition=bottom;verticalAlign=top;html=1;outlineConnect=0;" parent="1" vertex="1">
                    <mxGeometry x="170" y="580" width="30" height="60" as="geometry"/>
                </mxCell>
                <mxCell id="Qe1U-yOvpPULDO2mOXiQ-25" style="edgeStyle=none;html=1;exitX=0;exitY=0.3333333333333333;exitDx=0;exitDy=0;exitPerimeter=0;" parent="1" source="Qe1U-yOvpPULDO2mOXiQ-10" target="Qe1U-yOvpPULDO2mOXiQ-4" edge="1">
                    <mxGeometry relative="1" as="geometry"/>
                </mxCell>
                <mxCell id="Qe1U-yOvpPULDO2mOXiQ-10" value="AI Service" style="shape=umlActor;verticalLabelPosition=bottom;verticalAlign=top;html=1;outlineConnect=0;" parent="1" vertex="1">
                    <mxGeometry x="650" y="720" width="30" height="60" as="geometry"/>
                </mxCell>
                <mxCell id="Qe1U-yOvpPULDO2mOXiQ-17" style="edgeStyle=none;html=1;exitX=0;exitY=0.3333333333333333;exitDx=0;exitDy=0;exitPerimeter=0;entryX=1;entryY=0.5;entryDx=0;entryDy=0;" parent="1" source="Qe1U-yOvpPULDO2mOXiQ-11" target="Qe1U-yOvpPULDO2mOXiQ-1" edge="1">
                    <mxGeometry relative="1" as="geometry"/>
                </mxCell>
                <mxCell id="Qe1U-yOvpPULDO2mOXiQ-11" value="Application Service" style="shape=umlActor;verticalLabelPosition=bottom;verticalAlign=top;html=1;outlineConnect=0;" parent="1" vertex="1">
                    <mxGeometry x="650" y="300" width="30" height="60" as="geometry"/>
                </mxCell>
                <mxCell id="Qe1U-yOvpPULDO2mOXiQ-16" style="edgeStyle=none;html=1;exitX=0;exitY=0.3333333333333333;exitDx=0;exitDy=0;exitPerimeter=0;" parent="1" source="Qe1U-yOvpPULDO2mOXiQ-12" target="Qe1U-yOvpPULDO2mOXiQ-2" edge="1">
                    <mxGeometry relative="1" as="geometry"/>
                </mxCell>
                <mxCell id="Qe1U-yOvpPULDO2mOXiQ-12" value="Auth Service" style="shape=umlActor;verticalLabelPosition=bottom;verticalAlign=top;html=1;outlineConnect=0;" parent="1" vertex="1">
                    <mxGeometry x="650" y="160" width="30" height="60" as="geometry"/>
                </mxCell>
                <mxCell id="Qe1U-yOvpPULDO2mOXiQ-20" style="edgeStyle=none;html=1;exitX=0;exitY=0.3333333333333333;exitDx=0;exitDy=0;exitPerimeter=0;entryX=1;entryY=0.5;entryDx=0;entryDy=0;" parent="1" source="Qe1U-yOvpPULDO2mOXiQ-13" target="Qe1U-yOvpPULDO2mOXiQ-3" edge="1">
                    <mxGeometry relative="1" as="geometry"/>
                </mxCell>
                <mxCell id="Qe1U-yOvpPULDO2mOXiQ-13" value="Notification Service" style="shape=umlActor;verticalLabelPosition=bottom;verticalAlign=top;html=1;outlineConnect=0;" parent="1" vertex="1">
                    <mxGeometry x="650" y="440" width="30" height="60" as="geometry"/>
                </mxCell>
                <mxCell id="Qe1U-yOvpPULDO2mOXiQ-24" style="edgeStyle=none;html=1;exitX=0;exitY=0.3333333333333333;exitDx=0;exitDy=0;exitPerimeter=0;" parent="1" source="Qe1U-yOvpPULDO2mOXiQ-14" target="Qe1U-yOvpPULDO2mOXiQ-5" edge="1">
                    <mxGeometry relative="1" as="geometry"/>
                </mxCell>
                <mxCell id="Qe1U-yOvpPULDO2mOXiQ-14" value="A&lt;span style=&quot;background-color: transparent;&quot;&gt;nalytics Service&lt;/span&gt;" style="shape=umlActor;verticalLabelPosition=bottom;verticalAlign=top;html=1;outlineConnect=0;" parent="1" vertex="1">
                    <mxGeometry x="650" y="580" width="30" height="60" as="geometry"/>
                </mxCell>
                <mxCell id="jzyBd-HyLi7wHn8Ev0HC-5" value="0..n" style="text;strokeColor=none;fillColor=none;align=left;verticalAlign=middle;spacingLeft=4;spacingRight=4;overflow=hidden;points=[[0,0.5],[1,0.5]];portConstraint=eastwest;rotatable=0;whiteSpace=wrap;html=1;" parent="1" vertex="1">
                    <mxGeometry x="160" y="450" width="80" height="30" as="geometry"/>
                </mxCell>
                <mxCell id="jzyBd-HyLi7wHn8Ev0HC-6" value="0..n" style="text;strokeColor=none;fillColor=none;align=left;verticalAlign=middle;spacingLeft=4;spacingRight=4;overflow=hidden;points=[[0,0.5],[1,0.5]];portConstraint=eastwest;rotatable=0;whiteSpace=wrap;html=1;" parent="1" vertex="1">
                    <mxGeometry x="170" y="680" width="80" height="30" as="geometry"/>
                </mxCell>
            </root>
        </mxGraphModel>
    </diagram>
    <diagram id="s5NNnZgnPLFI9AhA7MTR" name="Recruietment">
        <mxGraphModel dx="1456" dy="485" grid="1" gridSize="10" guides="1" tooltips="1" connect="1" arrows="1" fold="1" page="1" pageScale="1" pageWidth="850" pageHeight="1100" math="0" shadow="0">
            <root>
                <mxCell id="0"/>
                <mxCell id="1" parent="0"/>
                <mxCell id="c44TW1ajQ-tMi61R3Xsf-9" style="edgeStyle=none;html=1;exitX=0.5;exitY=1;exitDx=0;exitDy=0;entryX=1;entryY=0.5;entryDx=0;entryDy=0;" parent="1" source="c44TW1ajQ-tMi61R3Xsf-2" target="c44TW1ajQ-tMi61R3Xsf-4" edge="1">
                    <mxGeometry relative="1" as="geometry"/>
                </mxCell>
                <mxCell id="c44TW1ajQ-tMi61R3Xsf-10" style="edgeStyle=none;html=1;exitX=0.5;exitY=1;exitDx=0;exitDy=0;entryX=1;entryY=0;entryDx=0;entryDy=0;" parent="1" source="c44TW1ajQ-tMi61R3Xsf-2" target="c44TW1ajQ-tMi61R3Xsf-5" edge="1">
                    <mxGeometry relative="1" as="geometry"/>
                </mxCell>
                <mxCell id="c44TW1ajQ-tMi61R3Xsf-11" style="edgeStyle=none;html=1;exitX=0.5;exitY=1;exitDx=0;exitDy=0;" parent="1" source="c44TW1ajQ-tMi61R3Xsf-2" target="c44TW1ajQ-tMi61R3Xsf-6" edge="1">
                    <mxGeometry relative="1" as="geometry"/>
                </mxCell>
                <mxCell id="c44TW1ajQ-tMi61R3Xsf-12" style="edgeStyle=none;html=1;exitX=0.5;exitY=1;exitDx=0;exitDy=0;entryX=0.5;entryY=0;entryDx=0;entryDy=0;" parent="1" source="c44TW1ajQ-tMi61R3Xsf-2" target="c44TW1ajQ-tMi61R3Xsf-7" edge="1">
                    <mxGeometry relative="1" as="geometry"/>
                </mxCell>
                <mxCell id="c44TW1ajQ-tMi61R3Xsf-13" style="edgeStyle=none;html=1;exitX=0.5;exitY=1;exitDx=0;exitDy=0;" parent="1" source="c44TW1ajQ-tMi61R3Xsf-2" target="c44TW1ajQ-tMi61R3Xsf-8" edge="1">
                    <mxGeometry relative="1" as="geometry"/>
                </mxCell>
                <mxCell id="c44TW1ajQ-tMi61R3Xsf-2" value="Post A Job" style="ellipse;whiteSpace=wrap;html=1;" parent="1" vertex="1">
                    <mxGeometry x="400" y="70" width="120" height="80" as="geometry"/>
                </mxCell>
                <mxCell id="c44TW1ajQ-tMi61R3Xsf-3" value="Apply" style="ellipse;whiteSpace=wrap;html=1;" parent="1" vertex="1">
                    <mxGeometry x="370" y="480" width="120" height="80" as="geometry"/>
                </mxCell>
                <mxCell id="c44TW1ajQ-tMi61R3Xsf-4" value="Job Description" style="ellipse;whiteSpace=wrap;html=1;" parent="1" vertex="1">
                    <mxGeometry x="210" y="230" width="120" height="80" as="geometry"/>
                </mxCell>
                <mxCell id="c44TW1ajQ-tMi61R3Xsf-5" value="Candidate Form" style="ellipse;whiteSpace=wrap;html=1;" parent="1" vertex="1">
                    <mxGeometry x="220" y="330" width="120" height="80" as="geometry"/>
                </mxCell>
                <mxCell id="c44TW1ajQ-tMi61R3Xsf-6" value="Action Order" style="ellipse;whiteSpace=wrap;html=1;" parent="1" vertex="1">
                    <mxGeometry x="350" y="350" width="120" height="80" as="geometry"/>
                </mxCell>
                <mxCell id="c44TW1ajQ-tMi61R3Xsf-7" value="Team" style="ellipse;whiteSpace=wrap;html=1;" parent="1" vertex="1">
                    <mxGeometry x="490" y="340" width="120" height="80" as="geometry"/>
                </mxCell>
                <mxCell id="P4eavf4MrxW92NSNnzFh-5" style="edgeStyle=none;html=1;exitX=0.5;exitY=1;exitDx=0;exitDy=0;entryX=1;entryY=0.5;entryDx=0;entryDy=0;" parent="1" source="c44TW1ajQ-tMi61R3Xsf-8" target="P4eavf4MrxW92NSNnzFh-3" edge="1">
                    <mxGeometry relative="1" as="geometry"/>
                </mxCell>
                <mxCell id="P4eavf4MrxW92NSNnzFh-8" style="edgeStyle=none;html=1;exitX=0.5;exitY=1;exitDx=0;exitDy=0;entryX=1;entryY=0.5;entryDx=0;entryDy=0;" parent="1" source="c44TW1ajQ-tMi61R3Xsf-8" target="c44TW1ajQ-tMi61R3Xsf-3" edge="1">
                    <mxGeometry relative="1" as="geometry"/>
                </mxCell>
                <mxCell id="c44TW1ajQ-tMi61R3Xsf-8" value="Promote" style="ellipse;whiteSpace=wrap;html=1;" parent="1" vertex="1">
                    <mxGeometry x="620" y="340" width="120" height="80" as="geometry"/>
                </mxCell>
                <mxCell id="c44TW1ajQ-tMi61R3Xsf-15" style="edgeStyle=none;html=1;exitX=1;exitY=0.3333333333333333;exitDx=0;exitDy=0;exitPerimeter=0;entryX=0;entryY=0.5;entryDx=0;entryDy=0;" parent="1" source="c44TW1ajQ-tMi61R3Xsf-14" target="c44TW1ajQ-tMi61R3Xsf-3" edge="1">
                    <mxGeometry relative="1" as="geometry"/>
                </mxCell>
                <mxCell id="P4eavf4MrxW92NSNnzFh-4" style="edgeStyle=none;html=1;exitX=1;exitY=0.3333333333333333;exitDx=0;exitDy=0;exitPerimeter=0;entryX=0;entryY=0.5;entryDx=0;entryDy=0;" parent="1" source="c44TW1ajQ-tMi61R3Xsf-14" target="P4eavf4MrxW92NSNnzFh-3" edge="1">
                    <mxGeometry relative="1" as="geometry"/>
                </mxCell>
                <mxCell id="c44TW1ajQ-tMi61R3Xsf-14" value="Candidate" style="shape=umlActor;verticalLabelPosition=bottom;verticalAlign=top;html=1;outlineConnect=0;" parent="1" vertex="1">
                    <mxGeometry x="160" y="570" width="30" height="60" as="geometry"/>
                </mxCell>
                <mxCell id="c44TW1ajQ-tMi61R3Xsf-18" style="edgeStyle=none;html=1;exitX=1;exitY=0.3333333333333333;exitDx=0;exitDy=0;exitPerimeter=0;entryX=0;entryY=1;entryDx=0;entryDy=0;" parent="1" source="c44TW1ajQ-tMi61R3Xsf-16" target="c44TW1ajQ-tMi61R3Xsf-2" edge="1">
                    <mxGeometry relative="1" as="geometry"/>
                </mxCell>
                <mxCell id="c44TW1ajQ-tMi61R3Xsf-16" value="Admin" style="shape=umlActor;verticalLabelPosition=bottom;verticalAlign=top;html=1;outlineConnect=0;" parent="1" vertex="1">
                    <mxGeometry x="60" y="220" width="30" height="60" as="geometry"/>
                </mxCell>
                <mxCell id="P4eavf4MrxW92NSNnzFh-2" style="edgeStyle=none;html=1;exitX=0;exitY=0.3333333333333333;exitDx=0;exitDy=0;exitPerimeter=0;" parent="1" source="P4eavf4MrxW92NSNnzFh-1" target="c44TW1ajQ-tMi61R3Xsf-2" edge="1">
                    <mxGeometry relative="1" as="geometry"/>
                </mxCell>
                <mxCell id="P4eavf4MrxW92NSNnzFh-9" style="edgeStyle=none;html=1;exitX=0;exitY=0.3333333333333333;exitDx=0;exitDy=0;exitPerimeter=0;" parent="1" source="P4eavf4MrxW92NSNnzFh-1" target="c44TW1ajQ-tMi61R3Xsf-8" edge="1">
                    <mxGeometry relative="1" as="geometry"/>
                </mxCell>
                <mxCell id="P4eavf4MrxW92NSNnzFh-1" value="Recruitment Service" style="shape=umlActor;verticalLabelPosition=bottom;verticalAlign=top;html=1;outlineConnect=0;" parent="1" vertex="1">
                    <mxGeometry x="910" y="360" width="30" height="60" as="geometry"/>
                </mxCell>
                <mxCell id="P4eavf4MrxW92NSNnzFh-3" value="View" style="ellipse;whiteSpace=wrap;html=1;" parent="1" vertex="1">
                    <mxGeometry x="370" y="590" width="120" height="80" as="geometry"/>
                </mxCell>
                <mxCell id="2SjtAKix_7DZY73n14Wi-6" style="edgeStyle=none;html=1;exitX=0.5;exitY=1;exitDx=0;exitDy=0;entryX=0;entryY=0;entryDx=0;entryDy=0;" parent="1" source="2SjtAKix_7DZY73n14Wi-1" target="2SjtAKix_7DZY73n14Wi-5" edge="1">
                    <mxGeometry relative="1" as="geometry"/>
                </mxCell>
                <mxCell id="2SjtAKix_7DZY73n14Wi-32" style="edgeStyle=none;html=1;exitX=0.5;exitY=1;exitDx=0;exitDy=0;entryX=0.5;entryY=0;entryDx=0;entryDy=0;" parent="1" source="2SjtAKix_7DZY73n14Wi-1" target="2SjtAKix_7DZY73n14Wi-31" edge="1">
                    <mxGeometry relative="1" as="geometry"/>
                </mxCell>
                <mxCell id="7jtAyGCEqnlLohM0LxB_-8" style="edgeStyle=none;html=1;exitX=0.5;exitY=1;exitDx=0;exitDy=0;entryX=0.5;entryY=0;entryDx=0;entryDy=0;" parent="1" source="2SjtAKix_7DZY73n14Wi-1" target="2SjtAKix_7DZY73n14Wi-15" edge="1">
                    <mxGeometry relative="1" as="geometry"/>
                </mxCell>
                <mxCell id="2SjtAKix_7DZY73n14Wi-1" value="Application" style="rounded=1;whiteSpace=wrap;html=1;" parent="1" vertex="1">
                    <mxGeometry x="370" y="710" width="120" height="60" as="geometry"/>
                </mxCell>
                <mxCell id="2SjtAKix_7DZY73n14Wi-8" style="edgeStyle=none;html=1;exitX=0;exitY=1;exitDx=0;exitDy=0;entryX=1;entryY=0;entryDx=0;entryDy=0;" parent="1" source="2SjtAKix_7DZY73n14Wi-2" target="2SjtAKix_7DZY73n14Wi-3" edge="1">
                    <mxGeometry relative="1" as="geometry"/>
                </mxCell>
                <mxCell id="2SjtAKix_7DZY73n14Wi-2" value="Job" style="rounded=1;whiteSpace=wrap;html=1;" parent="1" vertex="1">
                    <mxGeometry x="150" y="840" width="120" height="60" as="geometry"/>
                </mxCell>
                <mxCell id="2SjtAKix_7DZY73n14Wi-3" value="Job Description" style="rounded=1;whiteSpace=wrap;html=1;" parent="1" vertex="1">
                    <mxGeometry x="-20" y="920" width="120" height="60" as="geometry"/>
                </mxCell>
                <mxCell id="2SjtAKix_7DZY73n14Wi-4" style="edgeStyle=none;html=1;exitX=0.5;exitY=1;exitDx=0;exitDy=0;entryX=0.981;entryY=0.131;entryDx=0;entryDy=0;entryPerimeter=0;" parent="1" source="2SjtAKix_7DZY73n14Wi-1" target="2SjtAKix_7DZY73n14Wi-2" edge="1">
                    <mxGeometry relative="1" as="geometry"/>
                </mxCell>
                <mxCell id="2SjtAKix_7DZY73n14Wi-5" value="Candidates" style="rounded=1;whiteSpace=wrap;html=1;" parent="1" vertex="1">
                    <mxGeometry x="740" y="850" width="120" height="60" as="geometry"/>
                </mxCell>
                <mxCell id="2SjtAKix_7DZY73n14Wi-7" value="Company" style="rounded=1;whiteSpace=wrap;html=1;" parent="1" vertex="1">
                    <mxGeometry x="-190" y="1000" width="120" height="60" as="geometry"/>
                </mxCell>
                <mxCell id="2SjtAKix_7DZY73n14Wi-9" value="Requirements" style="rounded=1;whiteSpace=wrap;html=1;" parent="1" vertex="1">
                    <mxGeometry x="-20" y="1050" width="120" height="60" as="geometry"/>
                </mxCell>
                <mxCell id="2SjtAKix_7DZY73n14Wi-10" style="edgeStyle=none;html=1;exitX=0;exitY=1;exitDx=0;exitDy=0;entryX=0.937;entryY=0.082;entryDx=0;entryDy=0;entryPerimeter=0;" parent="1" source="2SjtAKix_7DZY73n14Wi-3" target="2SjtAKix_7DZY73n14Wi-7" edge="1">
                    <mxGeometry relative="1" as="geometry"/>
                </mxCell>
                <mxCell id="2SjtAKix_7DZY73n14Wi-12" style="edgeStyle=none;html=1;exitX=0.5;exitY=1;exitDx=0;exitDy=0;entryX=0.5;entryY=0;entryDx=0;entryDy=0;" parent="1" source="2SjtAKix_7DZY73n14Wi-3" target="2SjtAKix_7DZY73n14Wi-9" edge="1">
                    <mxGeometry relative="1" as="geometry"/>
                </mxCell>
                <mxCell id="2SjtAKix_7DZY73n14Wi-26" style="edgeStyle=none;html=1;exitX=0.5;exitY=1;exitDx=0;exitDy=0;entryX=0.5;entryY=0;entryDx=0;entryDy=0;" parent="1" source="2SjtAKix_7DZY73n14Wi-13" target="qa436-CL6R2gEDWRgbmo-1" edge="1">
                    <mxGeometry relative="1" as="geometry">
                        <mxPoint x="220" y="1090" as="targetPoint"/>
                    </mxGeometry>
                </mxCell>
                <mxCell id="2SjtAKix_7DZY73n14Wi-13" value="Job Form" style="rounded=1;whiteSpace=wrap;html=1;" parent="1" vertex="1">
                    <mxGeometry x="160" y="960" width="120" height="60" as="geometry"/>
                </mxCell>
                <mxCell id="2SjtAKix_7DZY73n14Wi-14" style="edgeStyle=none;html=1;exitX=0.5;exitY=1;exitDx=0;exitDy=0;entryX=0.413;entryY=0;entryDx=0;entryDy=0;entryPerimeter=0;" parent="1" source="2SjtAKix_7DZY73n14Wi-2" target="2SjtAKix_7DZY73n14Wi-13" edge="1">
                    <mxGeometry relative="1" as="geometry"/>
                </mxCell>
                <mxCell id="2SjtAKix_7DZY73n14Wi-30" style="edgeStyle=none;html=1;exitX=0.5;exitY=1;exitDx=0;exitDy=0;entryX=0.5;entryY=0;entryDx=0;entryDy=0;" parent="1" source="2SjtAKix_7DZY73n14Wi-15" target="2SjtAKix_7DZY73n14Wi-27" edge="1">
                    <mxGeometry relative="1" as="geometry"/>
                </mxCell>
                <mxCell id="2SjtAKix_7DZY73n14Wi-15" value="Order" style="rounded=1;whiteSpace=wrap;html=1;" parent="1" vertex="1">
                    <mxGeometry x="350" y="850" width="120" height="60" as="geometry"/>
                </mxCell>
                <mxCell id="2SjtAKix_7DZY73n14Wi-17" value="Fileds" style="rounded=1;whiteSpace=wrap;html=1;" parent="1" vertex="1">
                    <mxGeometry x="280" y="1340" width="120" height="60" as="geometry"/>
                </mxCell>
                <mxCell id="2SjtAKix_7DZY73n14Wi-19" value="Field Type" style="rounded=1;whiteSpace=wrap;html=1;" parent="1" vertex="1">
                    <mxGeometry x="60" y="1350" width="120" height="60" as="geometry"/>
                </mxCell>
                <mxCell id="qa436-CL6R2gEDWRgbmo-4" style="edgeStyle=none;html=1;exitX=0.5;exitY=0;exitDx=0;exitDy=0;entryX=0.5;entryY=1;entryDx=0;entryDy=0;" parent="1" source="2SjtAKix_7DZY73n14Wi-21" target="qa436-CL6R2gEDWRgbmo-1" edge="1">
                    <mxGeometry relative="1" as="geometry"/>
                </mxCell>
                <mxCell id="2SjtAKix_7DZY73n14Wi-21" value="Form Fields" style="rounded=1;whiteSpace=wrap;html=1;" parent="1" vertex="1">
                    <mxGeometry x="160" y="1200" width="120" height="60" as="geometry"/>
                </mxCell>
                <mxCell id="2SjtAKix_7DZY73n14Wi-27" value="Items" style="rounded=1;whiteSpace=wrap;html=1;fillColor=#fff2cc;strokeColor=#d6b656;" parent="1" vertex="1">
                    <mxGeometry x="355" y="960" width="110" height="20" as="geometry"/>
                </mxCell>
                <mxCell id="2SjtAKix_7DZY73n14Wi-31" value="Team" style="rounded=1;whiteSpace=wrap;html=1;" parent="1" vertex="1">
                    <mxGeometry x="530" y="850" width="120" height="60" as="geometry"/>
                </mxCell>
                <mxCell id="2SjtAKix_7DZY73n14Wi-35" style="edgeStyle=none;html=1;exitX=0;exitY=0.5;exitDx=0;exitDy=0;" parent="1" source="2SjtAKix_7DZY73n14Wi-33" target="2SjtAKix_7DZY73n14Wi-5" edge="1">
                    <mxGeometry relative="1" as="geometry"/>
                </mxCell>
                <mxCell id="2SjtAKix_7DZY73n14Wi-33" value="CV" style="rounded=1;whiteSpace=wrap;html=1;" parent="1" vertex="1">
                    <mxGeometry x="930" y="850" width="120" height="60" as="geometry"/>
                </mxCell>
                <mxCell id="2SjtAKix_7DZY73n14Wi-34" value="Details" style="rounded=1;whiteSpace=wrap;html=1;" parent="1" vertex="1">
                    <mxGeometry x="960" y="890" width="120" height="60" as="geometry"/>
                </mxCell>
                <mxCell id="2SjtAKix_7DZY73n14Wi-37" style="edgeStyle=none;html=1;exitX=1;exitY=0;exitDx=0;exitDy=0;entryX=0.5;entryY=1;entryDx=0;entryDy=0;" parent="1" source="2SjtAKix_7DZY73n14Wi-36" target="2SjtAKix_7DZY73n14Wi-5" edge="1">
                    <mxGeometry relative="1" as="geometry"/>
                </mxCell>
                <mxCell id="2SjtAKix_7DZY73n14Wi-38" style="edgeStyle=none;html=1;exitX=0.5;exitY=0;exitDx=0;exitDy=0;entryX=0.5;entryY=1;entryDx=0;entryDy=0;" parent="1" source="2SjtAKix_7DZY73n14Wi-36" target="2SjtAKix_7DZY73n14Wi-31" edge="1">
                    <mxGeometry relative="1" as="geometry"/>
                </mxCell>
                <mxCell id="2SjtAKix_7DZY73n14Wi-39" style="edgeStyle=none;html=1;exitX=0;exitY=0;exitDx=0;exitDy=0;entryX=0.918;entryY=1.041;entryDx=0;entryDy=0;entryPerimeter=0;" parent="1" source="2SjtAKix_7DZY73n14Wi-36" target="2SjtAKix_7DZY73n14Wi-27" edge="1">
                    <mxGeometry relative="1" as="geometry"/>
                </mxCell>
                <mxCell id="2SjtAKix_7DZY73n14Wi-36" value="Notifications" style="rounded=1;whiteSpace=wrap;html=1;" parent="1" vertex="1">
                    <mxGeometry x="620" y="1050" width="120" height="60" as="geometry"/>
                </mxCell>
                <mxCell id="7jtAyGCEqnlLohM0LxB_-1" value="Configure Job" style="rounded=1;whiteSpace=wrap;html=1;" parent="1" vertex="1">
                    <mxGeometry x="-180" y="840" width="120" height="60" as="geometry"/>
                </mxCell>
                <mxCell id="7jtAyGCEqnlLohM0LxB_-2" style="edgeStyle=none;html=1;exitX=1;exitY=1;exitDx=0;exitDy=0;entryX=0.069;entryY=0.003;entryDx=0;entryDy=0;entryPerimeter=0;" parent="1" source="7jtAyGCEqnlLohM0LxB_-1" target="2SjtAKix_7DZY73n14Wi-3" edge="1">
                    <mxGeometry relative="1" as="geometry"/>
                </mxCell>
                <mxCell id="qa436-CL6R2gEDWRgbmo-1" value="Items" style="rounded=1;whiteSpace=wrap;html=1;fillColor=#fff2cc;strokeColor=#d6b656;" parent="1" vertex="1">
                    <mxGeometry x="165" y="1110" width="110" height="30" as="geometry"/>
                </mxCell>
                <mxCell id="qa436-CL6R2gEDWRgbmo-2" style="edgeStyle=none;html=1;exitX=1;exitY=0;exitDx=0;exitDy=0;entryX=0.375;entryY=1.043;entryDx=0;entryDy=0;entryPerimeter=0;" parent="1" source="2SjtAKix_7DZY73n14Wi-19" target="2SjtAKix_7DZY73n14Wi-21" edge="1">
                    <mxGeometry relative="1" as="geometry"/>
                </mxCell>
                <mxCell id="qa436-CL6R2gEDWRgbmo-3" style="edgeStyle=none;html=1;exitX=0;exitY=0;exitDx=0;exitDy=0;entryX=0.64;entryY=0.984;entryDx=0;entryDy=0;entryPerimeter=0;" parent="1" source="2SjtAKix_7DZY73n14Wi-17" target="2SjtAKix_7DZY73n14Wi-21" edge="1">
                    <mxGeometry relative="1" as="geometry"/>
                </mxCell>
                <mxCell id="DxtupkNg0LyVyFO9vJSQ-1" value="Application" style="rounded=1;whiteSpace=wrap;html=1;" parent="1" vertex="1">
                    <mxGeometry x="355" y="1650" width="120" height="60" as="geometry"/>
                </mxCell>
                <mxCell id="DxtupkNg0LyVyFO9vJSQ-69" style="edgeStyle=none;html=1;exitX=0;exitY=0.75;exitDx=0;exitDy=0;entryX=0.5;entryY=0;entryDx=0;entryDy=0;" parent="1" source="DxtupkNg0LyVyFO9vJSQ-2" target="DxtupkNg0LyVyFO9vJSQ-68" edge="1">
                    <mxGeometry relative="1" as="geometry"/>
                </mxCell>
                <mxCell id="DxtupkNg0LyVyFO9vJSQ-2" value="Job" style="rounded=1;whiteSpace=wrap;html=1;" parent="1" vertex="1">
                    <mxGeometry x="670" y="1650" width="120" height="60" as="geometry"/>
                </mxCell>
                <mxCell id="DxtupkNg0LyVyFO9vJSQ-4" style="html=1;exitX=0;exitY=0.5;exitDx=0;exitDy=0;endArrow=none;endFill=0;" parent="1" source="DxtupkNg0LyVyFO9vJSQ-3" target="DxtupkNg0LyVyFO9vJSQ-1" edge="1">
                    <mxGeometry relative="1" as="geometry"/>
                </mxCell>
                <mxCell id="DxtupkNg0LyVyFO9vJSQ-5" style="edgeStyle=none;html=1;exitX=1;exitY=0.5;exitDx=0;exitDy=0;entryX=0;entryY=0.5;entryDx=0;entryDy=0;endArrow=none;endFill=0;" parent="1" source="DxtupkNg0LyVyFO9vJSQ-3" target="DxtupkNg0LyVyFO9vJSQ-2" edge="1">
                    <mxGeometry relative="1" as="geometry"/>
                </mxCell>
                <mxCell id="DxtupkNg0LyVyFO9vJSQ-3" value="has" style="shape=rhombus;perimeter=rhombusPerimeter;whiteSpace=wrap;html=1;align=center;" parent="1" vertex="1">
                    <mxGeometry x="520" y="1650" width="120" height="60" as="geometry"/>
                </mxCell>
                <mxCell id="DxtupkNg0LyVyFO9vJSQ-31" style="edgeStyle=none;html=1;exitX=0.5;exitY=1;exitDx=0;exitDy=0;" parent="1" source="DxtupkNg0LyVyFO9vJSQ-6" target="DxtupkNg0LyVyFO9vJSQ-30" edge="1">
                    <mxGeometry relative="1" as="geometry"/>
                </mxCell>
                <mxCell id="DxtupkNg0LyVyFO9vJSQ-6" value="Candidates" style="rounded=1;whiteSpace=wrap;html=1;" parent="1" vertex="1">
                    <mxGeometry x="200" y="1802" width="120" height="60" as="geometry"/>
                </mxCell>
                <mxCell id="DxtupkNg0LyVyFO9vJSQ-8" style="edgeStyle=none;html=1;exitX=1;exitY=0.5;exitDx=0;exitDy=0;endArrow=none;endFill=0;" parent="1" source="DxtupkNg0LyVyFO9vJSQ-7" target="DxtupkNg0LyVyFO9vJSQ-1" edge="1">
                    <mxGeometry relative="1" as="geometry"/>
                </mxCell>
                <mxCell id="DxtupkNg0LyVyFO9vJSQ-9" style="edgeStyle=none;html=1;exitX=0.5;exitY=1;exitDx=0;exitDy=0;endArrow=none;endFill=0;" parent="1" source="DxtupkNg0LyVyFO9vJSQ-7" target="DxtupkNg0LyVyFO9vJSQ-6" edge="1">
                    <mxGeometry relative="1" as="geometry">
                        <mxPoint x="510" y="1800" as="sourcePoint"/>
                    </mxGeometry>
                </mxCell>
                <mxCell id="DxtupkNg0LyVyFO9vJSQ-7" value="apply for" style="shape=rhombus;perimeter=rhombusPerimeter;whiteSpace=wrap;html=1;align=center;" parent="1" vertex="1">
                    <mxGeometry x="200" y="1650" width="120" height="60" as="geometry"/>
                </mxCell>
                <mxCell id="DxtupkNg0LyVyFO9vJSQ-10" value="Companies" style="rounded=1;whiteSpace=wrap;html=1;" parent="1" vertex="1">
                    <mxGeometry x="970" y="1650" width="120" height="60" as="geometry"/>
                </mxCell>
                <mxCell id="DxtupkNg0LyVyFO9vJSQ-11" style="edgeStyle=none;html=1;exitX=1;exitY=0.5;exitDx=0;exitDy=0;entryX=0;entryY=0.5;entryDx=0;entryDy=0;endArrow=none;endFill=0;" parent="1" source="DxtupkNg0LyVyFO9vJSQ-12" target="DxtupkNg0LyVyFO9vJSQ-10" edge="1">
                    <mxGeometry relative="1" as="geometry"/>
                </mxCell>
                <mxCell id="DxtupkNg0LyVyFO9vJSQ-13" style="edgeStyle=none;html=1;exitX=0;exitY=0.5;exitDx=0;exitDy=0;entryX=1;entryY=0.5;entryDx=0;entryDy=0;" parent="1" source="DxtupkNg0LyVyFO9vJSQ-12" target="DxtupkNg0LyVyFO9vJSQ-2" edge="1">
                    <mxGeometry relative="1" as="geometry"/>
                </mxCell>
                <mxCell id="DxtupkNg0LyVyFO9vJSQ-12" value="has" style="shape=rhombus;perimeter=rhombusPerimeter;whiteSpace=wrap;html=1;align=center;" parent="1" vertex="1">
                    <mxGeometry x="830" y="1650" width="120" height="60" as="geometry"/>
                </mxCell>
                <mxCell id="DxtupkNg0LyVyFO9vJSQ-28" style="edgeStyle=none;html=1;exitX=1;exitY=0.5;exitDx=0;exitDy=0;entryX=0;entryY=0.5;entryDx=0;entryDy=0;" parent="1" source="DxtupkNg0LyVyFO9vJSQ-14" target="DxtupkNg0LyVyFO9vJSQ-27" edge="1">
                    <mxGeometry relative="1" as="geometry"/>
                </mxCell>
                <mxCell id="DxtupkNg0LyVyFO9vJSQ-14" value="Job Description" style="rounded=1;whiteSpace=wrap;html=1;" parent="1" vertex="1">
                    <mxGeometry x="810" y="1550" width="120" height="60" as="geometry"/>
                </mxCell>
                <mxCell id="DxtupkNg0LyVyFO9vJSQ-15" style="edgeStyle=none;html=1;exitX=1;exitY=0.5;exitDx=0;exitDy=0;entryX=0;entryY=0.5;entryDx=0;entryDy=0;endArrow=none;endFill=0;" parent="1" source="DxtupkNg0LyVyFO9vJSQ-16" target="DxtupkNg0LyVyFO9vJSQ-14" edge="1">
                    <mxGeometry relative="1" as="geometry"/>
                </mxCell>
                <mxCell id="DxtupkNg0LyVyFO9vJSQ-16" value="has" style="shape=rhombus;perimeter=rhombusPerimeter;whiteSpace=wrap;html=1;align=center;" parent="1" vertex="1">
                    <mxGeometry x="670" y="1550" width="120" height="60" as="geometry"/>
                </mxCell>
                <mxCell id="DxtupkNg0LyVyFO9vJSQ-17" style="edgeStyle=none;html=1;exitX=0.5;exitY=1;exitDx=0;exitDy=0;entryX=0.5;entryY=0;entryDx=0;entryDy=0;" parent="1" source="DxtupkNg0LyVyFO9vJSQ-16" target="DxtupkNg0LyVyFO9vJSQ-2" edge="1">
                    <mxGeometry relative="1" as="geometry"/>
                </mxCell>
                <mxCell id="DxtupkNg0LyVyFO9vJSQ-18" value="Order" style="rounded=1;whiteSpace=wrap;html=1;" parent="1" vertex="1">
                    <mxGeometry x="1435" y="1750" width="120" height="60" as="geometry"/>
                </mxCell>
                <mxCell id="DxtupkNg0LyVyFO9vJSQ-19" style="edgeStyle=none;html=1;exitX=1;exitY=0.5;exitDx=0;exitDy=0;entryX=0;entryY=0.5;entryDx=0;entryDy=0;endArrow=none;endFill=0;" parent="1" source="DxtupkNg0LyVyFO9vJSQ-57" target="DxtupkNg0LyVyFO9vJSQ-18" edge="1">
                    <mxGeometry relative="1" as="geometry">
                        <mxPoint x="985.0000000000005" y="1670" as="sourcePoint"/>
                    </mxGeometry>
                </mxCell>
                <mxCell id="DxtupkNg0LyVyFO9vJSQ-25" value="Requirements" style="rounded=1;whiteSpace=wrap;html=1;" parent="1" vertex="1">
                    <mxGeometry x="1180" y="1550" width="120" height="60" as="geometry"/>
                </mxCell>
                <mxCell id="DxtupkNg0LyVyFO9vJSQ-26" style="edgeStyle=none;html=1;exitX=1;exitY=0.5;exitDx=0;exitDy=0;entryX=0;entryY=0.5;entryDx=0;entryDy=0;endArrow=none;endFill=0;" parent="1" source="DxtupkNg0LyVyFO9vJSQ-27" target="DxtupkNg0LyVyFO9vJSQ-25" edge="1">
                    <mxGeometry relative="1" as="geometry"/>
                </mxCell>
                <mxCell id="DxtupkNg0LyVyFO9vJSQ-27" value="has" style="shape=rhombus;perimeter=rhombusPerimeter;whiteSpace=wrap;html=1;align=center;" parent="1" vertex="1">
                    <mxGeometry x="1000" y="1550" width="120" height="60" as="geometry"/>
                </mxCell>
                <mxCell id="DxtupkNg0LyVyFO9vJSQ-29" value="CV" style="rounded=1;whiteSpace=wrap;html=1;" parent="1" vertex="1">
                    <mxGeometry x="200" y="2070" width="120" height="60" as="geometry"/>
                </mxCell>
                <mxCell id="DxtupkNg0LyVyFO9vJSQ-32" style="edgeStyle=none;html=1;exitX=0.5;exitY=1;exitDx=0;exitDy=0;" parent="1" source="DxtupkNg0LyVyFO9vJSQ-30" target="DxtupkNg0LyVyFO9vJSQ-29" edge="1">
                    <mxGeometry relative="1" as="geometry"/>
                </mxCell>
                <mxCell id="DxtupkNg0LyVyFO9vJSQ-30" value="has" style="shape=rhombus;perimeter=rhombusPerimeter;whiteSpace=wrap;html=1;align=center;" parent="1" vertex="1">
                    <mxGeometry x="200" y="1930" width="120" height="60" as="geometry"/>
                </mxCell>
                <mxCell id="DxtupkNg0LyVyFO9vJSQ-43" style="edgeStyle=none;html=1;exitX=0.5;exitY=1;exitDx=0;exitDy=0;entryX=0.5;entryY=0;entryDx=0;entryDy=0;" parent="1" source="DxtupkNg0LyVyFO9vJSQ-33" target="DxtupkNg0LyVyFO9vJSQ-42" edge="1">
                    <mxGeometry relative="1" as="geometry"/>
                </mxCell>
                <mxCell id="DxtupkNg0LyVyFO9vJSQ-33" value="Form" style="rounded=1;whiteSpace=wrap;html=1;" parent="1" vertex="1">
                    <mxGeometry x="670" y="1802" width="120" height="60" as="geometry"/>
                </mxCell>
                <mxCell id="DxtupkNg0LyVyFO9vJSQ-34" style="edgeStyle=none;html=1;exitX=0.5;exitY=1;exitDx=0;exitDy=0;entryX=0.5;entryY=0;entryDx=0;entryDy=0;endArrow=none;endFill=0;" parent="1" target="DxtupkNg0LyVyFO9vJSQ-33" edge="1">
                    <mxGeometry relative="1" as="geometry">
                        <mxPoint x="730" y="1780.0000000000005" as="sourcePoint"/>
                    </mxGeometry>
                </mxCell>
                <mxCell id="DxtupkNg0LyVyFO9vJSQ-36" style="edgeStyle=none;html=1;exitX=0.5;exitY=0;exitDx=0;exitDy=0;" parent="1" source="DxtupkNg0LyVyFO9vJSQ-35" target="DxtupkNg0LyVyFO9vJSQ-2" edge="1">
                    <mxGeometry relative="1" as="geometry"/>
                </mxCell>
                <mxCell id="DxtupkNg0LyVyFO9vJSQ-35" value="has" style="shape=rhombus;perimeter=rhombusPerimeter;whiteSpace=wrap;html=1;align=center;" parent="1" vertex="1">
                    <mxGeometry x="670" y="1730" width="120" height="60" as="geometry"/>
                </mxCell>
                <mxCell id="DxtupkNg0LyVyFO9vJSQ-71" style="edgeStyle=none;html=1;exitX=0;exitY=0.5;exitDx=0;exitDy=0;entryX=1;entryY=1;entryDx=0;entryDy=0;" parent="1" source="DxtupkNg0LyVyFO9vJSQ-72" target="DxtupkNg0LyVyFO9vJSQ-6" edge="1">
                    <mxGeometry relative="1" as="geometry">
                        <mxPoint x="1215.0000000000005" y="2370" as="sourcePoint"/>
                        <mxPoint x="180" y="1710" as="targetPoint"/>
                        <Array as="points"/>
                    </mxGeometry>
                </mxCell>
                <mxCell id="DxtupkNg0LyVyFO9vJSQ-76" style="edgeStyle=none;html=1;exitX=0;exitY=1;exitDx=0;exitDy=0;entryX=1;entryY=0.5;entryDx=0;entryDy=0;" parent="1" source="DxtupkNg0LyVyFO9vJSQ-75" target="DxtupkNg0LyVyFO9vJSQ-74" edge="1">
                    <mxGeometry relative="1" as="geometry"/>
                </mxCell>
                <mxCell id="DxtupkNg0LyVyFO9vJSQ-37" value="Notifications" style="rounded=1;whiteSpace=wrap;html=1;" parent="1" vertex="1">
                    <mxGeometry x="1140" y="2170" width="120" height="60" as="geometry"/>
                </mxCell>
                <mxCell id="DxtupkNg0LyVyFO9vJSQ-39" value="Field Type" style="rounded=1;whiteSpace=wrap;html=1;" parent="1" vertex="1">
                    <mxGeometry x="830" y="1870" width="120" height="60" as="geometry"/>
                </mxCell>
                <mxCell id="DxtupkNg0LyVyFO9vJSQ-47" style="edgeStyle=none;html=1;exitX=1;exitY=0.5;exitDx=0;exitDy=0;" parent="1" source="DxtupkNg0LyVyFO9vJSQ-40" target="DxtupkNg0LyVyFO9vJSQ-46" edge="1">
                    <mxGeometry relative="1" as="geometry"/>
                </mxCell>
                <mxCell id="DxtupkNg0LyVyFO9vJSQ-40" value="Field" style="rounded=1;whiteSpace=wrap;html=1;" parent="1" vertex="1">
                    <mxGeometry x="670" y="1958" width="120" height="60" as="geometry"/>
                </mxCell>
                <mxCell id="DxtupkNg0LyVyFO9vJSQ-44" style="edgeStyle=none;html=1;exitX=0.5;exitY=1;exitDx=0;exitDy=0;entryX=0.5;entryY=0;entryDx=0;entryDy=0;" parent="1" target="DxtupkNg0LyVyFO9vJSQ-40" edge="1">
                    <mxGeometry relative="1" as="geometry">
                        <mxPoint x="730" y="1929" as="sourcePoint"/>
                    </mxGeometry>
                </mxCell>
                <mxCell id="DxtupkNg0LyVyFO9vJSQ-42" value="has" style="shape=rhombus;perimeter=rhombusPerimeter;whiteSpace=wrap;html=1;align=center;" parent="1" vertex="1">
                    <mxGeometry x="670" y="1880" width="120" height="60" as="geometry"/>
                </mxCell>
                <mxCell id="DxtupkNg0LyVyFO9vJSQ-48" style="edgeStyle=none;html=1;exitX=0.5;exitY=1;exitDx=0;exitDy=0;" parent="1" source="DxtupkNg0LyVyFO9vJSQ-46" target="DxtupkNg0LyVyFO9vJSQ-39" edge="1">
                    <mxGeometry relative="1" as="geometry"/>
                </mxCell>
                <mxCell id="DxtupkNg0LyVyFO9vJSQ-46" value="has" style="shape=rhombus;perimeter=rhombusPerimeter;whiteSpace=wrap;html=1;align=center;" parent="1" vertex="1">
                    <mxGeometry x="830" y="1960" width="120" height="60" as="geometry"/>
                </mxCell>
                <mxCell id="DxtupkNg0LyVyFO9vJSQ-60" style="edgeStyle=none;html=1;exitX=0.5;exitY=1;exitDx=0;exitDy=0;entryX=0.5;entryY=0;entryDx=0;entryDy=0;" parent="1" source="DxtupkNg0LyVyFO9vJSQ-51" target="DxtupkNg0LyVyFO9vJSQ-59" edge="1">
                    <mxGeometry relative="1" as="geometry"/>
                </mxCell>
                <mxCell id="DxtupkNg0LyVyFO9vJSQ-84" style="edgeStyle=none;html=1;exitX=1;exitY=1;exitDx=0;exitDy=0;entryX=0;entryY=0.5;entryDx=0;entryDy=0;" parent="1" source="DxtupkNg0LyVyFO9vJSQ-51" target="DxtupkNg0LyVyFO9vJSQ-83" edge="1">
                    <mxGeometry relative="1" as="geometry"/>
                </mxCell>
                <mxCell id="DxtupkNg0LyVyFO9vJSQ-51" value="Workflow" style="rounded=1;whiteSpace=wrap;html=1;" parent="1" vertex="1">
                    <mxGeometry x="1050" y="1750" width="120" height="60" as="geometry"/>
                </mxCell>
                <mxCell id="DxtupkNg0LyVyFO9vJSQ-52" value="Team" style="rounded=1;whiteSpace=wrap;html=1;" parent="1" vertex="1">
                    <mxGeometry x="530" y="1840" width="120" height="60" as="geometry"/>
                </mxCell>
                <mxCell id="DxtupkNg0LyVyFO9vJSQ-54" style="edgeStyle=none;html=1;exitX=0;exitY=0.5;exitDx=0;exitDy=0;entryX=1;entryY=1;entryDx=0;entryDy=0;" parent="1" source="DxtupkNg0LyVyFO9vJSQ-53" target="DxtupkNg0LyVyFO9vJSQ-2" edge="1">
                    <mxGeometry relative="1" as="geometry"/>
                </mxCell>
                <mxCell id="DxtupkNg0LyVyFO9vJSQ-55" style="edgeStyle=none;html=1;exitX=1;exitY=0.5;exitDx=0;exitDy=0;" parent="1" source="DxtupkNg0LyVyFO9vJSQ-53" target="DxtupkNg0LyVyFO9vJSQ-51" edge="1">
                    <mxGeometry relative="1" as="geometry"/>
                </mxCell>
                <mxCell id="DxtupkNg0LyVyFO9vJSQ-53" value="has" style="shape=rhombus;perimeter=rhombusPerimeter;whiteSpace=wrap;html=1;align=center;" parent="1" vertex="1">
                    <mxGeometry x="840" y="1750" width="120" height="60" as="geometry"/>
                </mxCell>
                <mxCell id="DxtupkNg0LyVyFO9vJSQ-80" style="edgeStyle=none;html=1;exitX=0.143;exitY=0.584;exitDx=0;exitDy=0;entryX=1;entryY=0.5;entryDx=0;entryDy=0;exitPerimeter=0;" parent="1" source="DxtupkNg0LyVyFO9vJSQ-79" target="DxtupkNg0LyVyFO9vJSQ-74" edge="1">
                    <mxGeometry relative="1" as="geometry"/>
                </mxCell>
                <mxCell id="DxtupkNg0LyVyFO9vJSQ-56" value="Tasks" style="rounded=1;whiteSpace=wrap;html=1;" parent="1" vertex="1">
                    <mxGeometry x="1050" y="1960" width="120" height="60" as="geometry"/>
                </mxCell>
                <mxCell id="DxtupkNg0LyVyFO9vJSQ-58" value="" style="edgeStyle=none;html=1;exitX=1;exitY=0.5;exitDx=0;exitDy=0;entryX=0;entryY=0.5;entryDx=0;entryDy=0;endArrow=none;endFill=0;" parent="1" source="DxtupkNg0LyVyFO9vJSQ-51" target="DxtupkNg0LyVyFO9vJSQ-57" edge="1">
                    <mxGeometry relative="1" as="geometry">
                        <mxPoint x="1195" y="1780" as="sourcePoint"/>
                        <mxPoint x="1365" y="1780" as="targetPoint"/>
                    </mxGeometry>
                </mxCell>
                <mxCell id="DxtupkNg0LyVyFO9vJSQ-57" value="has" style="shape=rhombus;perimeter=rhombusPerimeter;whiteSpace=wrap;html=1;align=center;" parent="1" vertex="1">
                    <mxGeometry x="1250" y="1750" width="120" height="60" as="geometry"/>
                </mxCell>
                <mxCell id="DxtupkNg0LyVyFO9vJSQ-61" style="edgeStyle=none;html=1;exitX=0.5;exitY=1;exitDx=0;exitDy=0;" parent="1" source="DxtupkNg0LyVyFO9vJSQ-59" target="DxtupkNg0LyVyFO9vJSQ-56" edge="1">
                    <mxGeometry relative="1" as="geometry"/>
                </mxCell>
                <mxCell id="DxtupkNg0LyVyFO9vJSQ-59" value="Run On" style="shape=rhombus;perimeter=rhombusPerimeter;whiteSpace=wrap;html=1;align=center;" parent="1" vertex="1">
                    <mxGeometry x="1050" y="1862" width="120" height="60" as="geometry"/>
                </mxCell>
                <mxCell id="DxtupkNg0LyVyFO9vJSQ-64" style="edgeStyle=none;html=1;exitX=0.5;exitY=1;exitDx=0;exitDy=0;entryX=0.5;entryY=0;entryDx=0;entryDy=0;" parent="1" source="DxtupkNg0LyVyFO9vJSQ-62" target="DxtupkNg0LyVyFO9vJSQ-37" edge="1">
                    <mxGeometry relative="1" as="geometry"/>
                </mxCell>
                <mxCell id="DxtupkNg0LyVyFO9vJSQ-62" value="Sent Based On" style="shape=rhombus;perimeter=rhombusPerimeter;whiteSpace=wrap;html=1;align=center;" parent="1" vertex="1">
                    <mxGeometry x="1250" y="2020" width="120" height="60" as="geometry"/>
                </mxCell>
                <mxCell id="DxtupkNg0LyVyFO9vJSQ-70" style="edgeStyle=none;html=1;exitX=0.5;exitY=1;exitDx=0;exitDy=0;entryX=0.429;entryY=-0.031;entryDx=0;entryDy=0;entryPerimeter=0;" parent="1" source="DxtupkNg0LyVyFO9vJSQ-68" target="DxtupkNg0LyVyFO9vJSQ-52" edge="1">
                    <mxGeometry relative="1" as="geometry"/>
                </mxCell>
                <mxCell id="DxtupkNg0LyVyFO9vJSQ-68" value="has" style="rhombus;whiteSpace=wrap;html=1;rounded=1;" parent="1" vertex="1">
                    <mxGeometry x="540" y="1742" width="80" height="80" as="geometry"/>
                </mxCell>
                <mxCell id="DxtupkNg0LyVyFO9vJSQ-73" value="" style="html=1;exitX=0;exitY=0.5;exitDx=0;exitDy=0;entryX=1;entryY=0.5;entryDx=0;entryDy=0;jumpStyle=gap;" parent="1" source="DxtupkNg0LyVyFO9vJSQ-37" target="DxtupkNg0LyVyFO9vJSQ-72" edge="1">
                    <mxGeometry relative="1" as="geometry">
                        <mxPoint x="1215.0000000000005" y="2370" as="sourcePoint"/>
                        <mxPoint x="180" y="1710" as="targetPoint"/>
                    </mxGeometry>
                </mxCell>
                <mxCell id="DxtupkNg0LyVyFO9vJSQ-72" value="to" style="rhombus;whiteSpace=wrap;html=1;rounded=1;" parent="1" vertex="1">
                    <mxGeometry x="680" y="2050" width="80" height="80" as="geometry"/>
                </mxCell>
                <mxCell id="DxtupkNg0LyVyFO9vJSQ-74" value="Users" style="rounded=1;whiteSpace=wrap;html=1;" parent="1" vertex="1">
                    <mxGeometry x="545" y="2260" width="120" height="60" as="geometry"/>
                </mxCell>
                <mxCell id="DxtupkNg0LyVyFO9vJSQ-77" value="" style="edgeStyle=none;html=1;exitX=0;exitY=1;exitDx=0;exitDy=0;entryX=1;entryY=0.5;entryDx=0;entryDy=0;" parent="1" source="DxtupkNg0LyVyFO9vJSQ-37" target="DxtupkNg0LyVyFO9vJSQ-75" edge="1">
                    <mxGeometry relative="1" as="geometry">
                        <mxPoint x="1215" y="2400" as="sourcePoint"/>
                        <mxPoint x="510" y="2480" as="targetPoint"/>
                    </mxGeometry>
                </mxCell>
                <mxCell id="DxtupkNg0LyVyFO9vJSQ-75" value="to" style="rhombus;whiteSpace=wrap;html=1;rounded=1;" parent="1" vertex="1">
                    <mxGeometry x="890" y="2310" width="80" height="80" as="geometry"/>
                </mxCell>
                <mxCell id="DxtupkNg0LyVyFO9vJSQ-81" value="" style="edgeStyle=none;html=1;exitX=0.5;exitY=1;exitDx=0;exitDy=0;entryX=1;entryY=0.5;entryDx=0;entryDy=0;" parent="1" source="DxtupkNg0LyVyFO9vJSQ-56" target="DxtupkNg0LyVyFO9vJSQ-79" edge="1">
                    <mxGeometry relative="1" as="geometry">
                        <mxPoint x="1110" y="2020" as="sourcePoint"/>
                        <mxPoint x="540" y="2310" as="targetPoint"/>
                    </mxGeometry>
                </mxCell>
                <mxCell id="DxtupkNg0LyVyFO9vJSQ-79" value="Assigend to" style="rhombus;whiteSpace=wrap;html=1;rounded=1;" parent="1" vertex="1">
                    <mxGeometry x="855" y="2170" width="80" height="80" as="geometry"/>
                </mxCell>
                <mxCell id="DxtupkNg0LyVyFO9vJSQ-86" style="edgeStyle=none;html=1;exitX=0.5;exitY=1;exitDx=0;exitDy=0;entryX=0.5;entryY=0;entryDx=0;entryDy=0;" parent="1" source="DxtupkNg0LyVyFO9vJSQ-82" target="DxtupkNg0LyVyFO9vJSQ-62" edge="1">
                    <mxGeometry relative="1" as="geometry"/>
                </mxCell>
                <mxCell id="DxtupkNg0LyVyFO9vJSQ-82" value="Notfication Types" style="rounded=1;whiteSpace=wrap;html=1;" parent="1" vertex="1">
                    <mxGeometry x="1400" y="1890" width="120" height="60" as="geometry"/>
                </mxCell>
                <mxCell id="DxtupkNg0LyVyFO9vJSQ-85" style="edgeStyle=none;html=1;exitX=1;exitY=0.5;exitDx=0;exitDy=0;entryX=0;entryY=0;entryDx=0;entryDy=0;" parent="1" source="DxtupkNg0LyVyFO9vJSQ-83" target="DxtupkNg0LyVyFO9vJSQ-82" edge="1">
                    <mxGeometry relative="1" as="geometry"/>
                </mxCell>
                <mxCell id="DxtupkNg0LyVyFO9vJSQ-83" value="has" style="shape=rhombus;perimeter=rhombusPerimeter;whiteSpace=wrap;html=1;align=center;" parent="1" vertex="1">
                    <mxGeometry x="1230" y="1840" width="120" height="60" as="geometry"/>
                </mxCell>
                <mxCell id="CQmAkE0bL4Dh-nipTxwM-1" value="Workflow" style="rounded=1;whiteSpace=wrap;html=1;" parent="1" vertex="1">
                    <mxGeometry x="400" y="2780" width="120" height="60" as="geometry"/>
                </mxCell>
                <mxCell id="CQmAkE0bL4Dh-nipTxwM-2" value="WorkflowStep" style="rounded=1;whiteSpace=wrap;html=1;" parent="1" vertex="1">
                    <mxGeometry x="735" y="2800" width="120" height="60" as="geometry"/>
                </mxCell>
            </root>
        </mxGraphModel>
    </diagram>
    <diagram id="zR-pArUtok41MXdQ3gLI" name="Front end">
        <mxGraphModel dx="1177" dy="797" grid="1" gridSize="10" guides="1" tooltips="1" connect="1" arrows="1" fold="1" page="1" pageScale="1" pageWidth="850" pageHeight="1100" math="0" shadow="0">
            <root>
                <mxCell id="0"/>
                <mxCell id="1" parent="0"/>
                <mxCell id="_gC_zOsvwQQS31igSf-x-1" value="Profile and Settings" style="rounded=1;whiteSpace=wrap;html=1;" parent="1" vertex="1">
                    <mxGeometry x="360" y="180" width="120" height="60" as="geometry"/>
                </mxCell>
                <mxCell id="_gC_zOsvwQQS31igSf-x-2" value="Recruietment" style="rounded=1;whiteSpace=wrap;html=1;" parent="1" vertex="1">
                    <mxGeometry x="360" y="300" width="120" height="60" as="geometry"/>
                </mxCell>
                <mxCell id="_gC_zOsvwQQS31igSf-x-3" value="Apply" style="rounded=1;whiteSpace=wrap;html=1;" parent="1" vertex="1">
                    <mxGeometry x="360" y="430" width="120" height="60" as="geometry"/>
                </mxCell>
                <mxCell id="_gC_zOsvwQQS31igSf-x-4" value="Post" style="rounded=1;whiteSpace=wrap;html=1;" parent="1" vertex="1">
                    <mxGeometry x="360" y="560" width="120" height="60" as="geometry"/>
                </mxCell>
                <mxCell id="_gC_zOsvwQQS31igSf-x-5" value="Dashbo&lt;span style=&quot;background-color: transparent;&quot;&gt;ard&lt;/span&gt;" style="rounded=1;whiteSpace=wrap;html=1;" parent="1" vertex="1">
                    <mxGeometry x="360" y="80" width="120" height="60" as="geometry"/>
                </mxCell>
            </root>
        </mxGraphModel>
    </diagram>
    <diagram id="7OMX2BLXeM8r2H0rM-J8" name="JD PAGE">
        <mxGraphModel dx="1829" dy="571" grid="1" gridSize="10" guides="1" tooltips="1" connect="1" arrows="1" fold="1" page="1" pageScale="1" pageWidth="850" pageHeight="1100" math="0" shadow="0">
            <root>
                <mxCell id="0"/>
                <mxCell id="1" parent="0"/>
                <mxCell id="pRyvSsuBSbEFiJc0szt9-1" value="Application" style="swimlane;fontStyle=0;childLayout=stackLayout;horizontal=1;startSize=30;horizontalStack=0;resizeParent=1;resizeParentMax=0;resizeLast=0;collapsible=1;marginBottom=0;whiteSpace=wrap;html=1;" vertex="1" parent="1">
                    <mxGeometry x="520" y="110" width="140" height="120" as="geometry"/>
                </mxCell>
                <mxCell id="pRyvSsuBSbEFiJc0szt9-2" value="ApplicationID" style="text;strokeColor=none;fillColor=none;align=left;verticalAlign=middle;spacingLeft=4;spacingRight=4;overflow=hidden;points=[[0,0.5],[1,0.5]];portConstraint=eastwest;rotatable=0;whiteSpace=wrap;html=1;" vertex="1" parent="pRyvSsuBSbEFiJc0szt9-1">
                    <mxGeometry y="30" width="140" height="30" as="geometry"/>
                </mxCell>
                <mxCell id="pRyvSsuBSbEFiJc0szt9-3" value="JobID" style="text;strokeColor=none;fillColor=none;align=left;verticalAlign=middle;spacingLeft=4;spacingRight=4;overflow=hidden;points=[[0,0.5],[1,0.5]];portConstraint=eastwest;rotatable=0;whiteSpace=wrap;html=1;" vertex="1" parent="pRyvSsuBSbEFiJc0szt9-1">
                    <mxGeometry y="60" width="140" height="30" as="geometry"/>
                </mxCell>
                <mxCell id="pRyvSsuBSbEFiJc0szt9-4" value="Item 3" style="text;strokeColor=none;fillColor=none;align=left;verticalAlign=middle;spacingLeft=4;spacingRight=4;overflow=hidden;points=[[0,0.5],[1,0.5]];portConstraint=eastwest;rotatable=0;whiteSpace=wrap;html=1;" vertex="1" parent="pRyvSsuBSbEFiJc0szt9-1">
                    <mxGeometry y="90" width="140" height="30" as="geometry"/>
                </mxCell>
                <mxCell id="pRyvSsuBSbEFiJc0szt9-5" value="Job" style="swimlane;fontStyle=0;childLayout=stackLayout;horizontal=1;startSize=20;horizontalStack=0;resizeParent=1;resizeParentMax=0;resizeLast=0;collapsible=1;marginBottom=0;whiteSpace=wrap;html=1;" vertex="1" parent="1">
                    <mxGeometry x="370" y="270" width="140" height="50" as="geometry"/>
                </mxCell>
                <mxCell id="pRyvSsuBSbEFiJc0szt9-6" value="JobID" style="text;strokeColor=none;fillColor=none;align=left;verticalAlign=middle;spacingLeft=4;spacingRight=4;overflow=hidden;points=[[0,0.5],[1,0.5]];portConstraint=eastwest;rotatable=0;whiteSpace=wrap;html=1;" vertex="1" parent="pRyvSsuBSbEFiJc0szt9-5">
                    <mxGeometry y="20" width="140" height="30" as="geometry"/>
                </mxCell>
                <mxCell id="pRyvSsuBSbEFiJc0szt9-9" value="Job Description" style="swimlane;fontStyle=0;childLayout=stackLayout;horizontal=1;startSize=20;horizontalStack=0;resizeParent=1;resizeParentMax=0;resizeLast=0;collapsible=1;marginBottom=0;whiteSpace=wrap;html=1;" vertex="1" parent="1">
                    <mxGeometry x="347" y="390" width="140" height="170" as="geometry"/>
                </mxCell>
                <mxCell id="pRyvSsuBSbEFiJc0szt9-48" value="JD ID" style="text;strokeColor=none;fillColor=none;align=left;verticalAlign=middle;spacingLeft=4;spacingRight=4;overflow=hidden;points=[[0,0.5],[1,0.5]];portConstraint=eastwest;rotatable=0;whiteSpace=wrap;html=1;" vertex="1" parent="pRyvSsuBSbEFiJc0szt9-9">
                    <mxGeometry y="20" width="140" height="30" as="geometry"/>
                </mxCell>
                <mxCell id="pRyvSsuBSbEFiJc0szt9-10" value="country" style="text;strokeColor=none;fillColor=none;align=left;verticalAlign=middle;spacingLeft=4;spacingRight=4;overflow=hidden;points=[[0,0.5],[1,0.5]];portConstraint=eastwest;rotatable=0;whiteSpace=wrap;html=1;" vertex="1" parent="pRyvSsuBSbEFiJc0szt9-9">
                    <mxGeometry y="50" width="140" height="30" as="geometry"/>
                </mxCell>
                <mxCell id="pRyvSsuBSbEFiJc0szt9-11" value="type of contract" style="text;strokeColor=none;fillColor=none;align=left;verticalAlign=middle;spacingLeft=4;spacingRight=4;overflow=hidden;points=[[0,0.5],[1,0.5]];portConstraint=eastwest;rotatable=0;whiteSpace=wrap;html=1;" vertex="1" parent="pRyvSsuBSbEFiJc0szt9-9">
                    <mxGeometry y="80" width="140" height="30" as="geometry"/>
                </mxCell>
                <mxCell id="pRyvSsuBSbEFiJc0szt9-12" value="JD to post&amp;nbsp; as html" style="text;strokeColor=none;fillColor=none;align=left;verticalAlign=middle;spacingLeft=4;spacingRight=4;overflow=hidden;points=[[0,0.5],[1,0.5]];portConstraint=eastwest;rotatable=0;whiteSpace=wrap;html=1;" vertex="1" parent="pRyvSsuBSbEFiJc0szt9-9">
                    <mxGeometry y="110" width="140" height="30" as="geometry"/>
                </mxCell>
                <mxCell id="pRyvSsuBSbEFiJc0szt9-23" value="requirements" style="text;strokeColor=none;fillColor=none;align=left;verticalAlign=middle;spacingLeft=4;spacingRight=4;overflow=hidden;points=[[0,0.5],[1,0.5]];portConstraint=eastwest;rotatable=0;whiteSpace=wrap;html=1;" vertex="1" parent="pRyvSsuBSbEFiJc0szt9-9">
                    <mxGeometry y="140" width="140" height="30" as="geometry"/>
                </mxCell>
                <mxCell id="pRyvSsuBSbEFiJc0szt9-13" value="Society" style="swimlane;fontStyle=0;childLayout=stackLayout;horizontal=1;startSize=20;horizontalStack=0;resizeParent=1;resizeParentMax=0;resizeLast=0;collapsible=1;marginBottom=0;whiteSpace=wrap;html=1;" vertex="1" parent="1">
                    <mxGeometry x="187" y="209" width="140" height="140" as="geometry"/>
                </mxCell>
                <mxCell id="pRyvSsuBSbEFiJc0szt9-47" value="id" style="text;strokeColor=none;fillColor=none;align=left;verticalAlign=middle;spacingLeft=4;spacingRight=4;overflow=hidden;points=[[0,0.5],[1,0.5]];portConstraint=eastwest;rotatable=0;whiteSpace=wrap;html=1;" vertex="1" parent="pRyvSsuBSbEFiJc0szt9-13">
                    <mxGeometry y="20" width="140" height="30" as="geometry"/>
                </mxCell>
                <mxCell id="pRyvSsuBSbEFiJc0szt9-14" value="name" style="text;strokeColor=none;fillColor=none;align=left;verticalAlign=middle;spacingLeft=4;spacingRight=4;overflow=hidden;points=[[0,0.5],[1,0.5]];portConstraint=eastwest;rotatable=0;whiteSpace=wrap;html=1;" vertex="1" parent="pRyvSsuBSbEFiJc0szt9-13">
                    <mxGeometry y="50" width="140" height="30" as="geometry"/>
                </mxCell>
                <mxCell id="pRyvSsuBSbEFiJc0szt9-15" value="logo" style="text;strokeColor=none;fillColor=none;align=left;verticalAlign=middle;spacingLeft=4;spacingRight=4;overflow=hidden;points=[[0,0.5],[1,0.5]];portConstraint=eastwest;rotatable=0;whiteSpace=wrap;html=1;" vertex="1" parent="pRyvSsuBSbEFiJc0szt9-13">
                    <mxGeometry y="80" width="140" height="30" as="geometry"/>
                </mxCell>
                <mxCell id="pRyvSsuBSbEFiJc0szt9-16" value="url" style="text;strokeColor=none;fillColor=none;align=left;verticalAlign=middle;spacingLeft=4;spacingRight=4;overflow=hidden;points=[[0,0.5],[1,0.5]];portConstraint=eastwest;rotatable=0;whiteSpace=wrap;html=1;" vertex="1" parent="pRyvSsuBSbEFiJc0szt9-13">
                    <mxGeometry y="110" width="140" height="30" as="geometry"/>
                </mxCell>
                <mxCell id="pRyvSsuBSbEFiJc0szt9-17" style="edgeStyle=none;html=1;exitX=0;exitY=0.5;exitDx=0;exitDy=0;endArrow=none;endFill=0;" edge="1" parent="1" source="pRyvSsuBSbEFiJc0szt9-6" target="pRyvSsuBSbEFiJc0szt9-15">
                    <mxGeometry relative="1" as="geometry">
                        <mxPoint x="370" y="295" as="sourcePoint"/>
                    </mxGeometry>
                </mxCell>
                <mxCell id="pRyvSsuBSbEFiJc0szt9-18" style="edgeStyle=none;html=1;exitX=0.336;exitY=1.1;exitDx=0;exitDy=0;entryX=0.5;entryY=0;entryDx=0;entryDy=0;endArrow=none;endFill=0;exitPerimeter=0;" edge="1" parent="1" source="pRyvSsuBSbEFiJc0szt9-6" target="pRyvSsuBSbEFiJc0szt9-9">
                    <mxGeometry relative="1" as="geometry">
                        <mxPoint x="370" y="295" as="sourcePoint"/>
                    </mxGeometry>
                </mxCell>
                <mxCell id="pRyvSsuBSbEFiJc0szt9-25" value="Type of Contact" style="swimlane;fontStyle=0;childLayout=stackLayout;horizontal=1;startSize=20;horizontalStack=0;resizeParent=1;resizeParentMax=0;resizeLast=0;collapsible=1;marginBottom=0;whiteSpace=wrap;html=1;" vertex="1" parent="1">
                    <mxGeometry x="-16" y="360" width="140" height="170" as="geometry"/>
                </mxCell>
                <mxCell id="pRyvSsuBSbEFiJc0szt9-55" value="typeID" style="text;strokeColor=none;fillColor=none;align=left;verticalAlign=middle;spacingLeft=4;spacingRight=4;overflow=hidden;points=[[0,0.5],[1,0.5]];portConstraint=eastwest;rotatable=0;whiteSpace=wrap;html=1;" vertex="1" parent="pRyvSsuBSbEFiJc0szt9-25">
                    <mxGeometry y="20" width="140" height="30" as="geometry"/>
                </mxCell>
                <mxCell id="pRyvSsuBSbEFiJc0szt9-26" value="type" style="text;strokeColor=none;fillColor=none;align=left;verticalAlign=middle;spacingLeft=4;spacingRight=4;overflow=hidden;points=[[0,0.5],[1,0.5]];portConstraint=eastwest;rotatable=0;whiteSpace=wrap;html=1;" vertex="1" parent="pRyvSsuBSbEFiJc0szt9-25">
                    <mxGeometry y="50" width="140" height="30" as="geometry"/>
                </mxCell>
                <mxCell id="pRyvSsuBSbEFiJc0szt9-28" value="name" style="text;strokeColor=none;fillColor=none;align=left;verticalAlign=middle;spacingLeft=4;spacingRight=4;overflow=hidden;points=[[0,0.5],[1,0.5]];portConstraint=eastwest;rotatable=0;whiteSpace=wrap;html=1;" vertex="1" parent="pRyvSsuBSbEFiJc0szt9-25">
                    <mxGeometry y="80" width="140" height="30" as="geometry"/>
                </mxCell>
                <mxCell id="pRyvSsuBSbEFiJc0szt9-27" value="options" style="text;strokeColor=none;fillColor=none;align=left;verticalAlign=middle;spacingLeft=4;spacingRight=4;overflow=hidden;points=[[0,0.5],[1,0.5]];portConstraint=eastwest;rotatable=0;whiteSpace=wrap;html=1;" vertex="1" parent="pRyvSsuBSbEFiJc0szt9-25">
                    <mxGeometry y="110" width="140" height="30" as="geometry"/>
                </mxCell>
                <mxCell id="pRyvSsuBSbEFiJc0szt9-43" value="duration" style="text;strokeColor=none;fillColor=none;align=left;verticalAlign=middle;spacingLeft=4;spacingRight=4;overflow=hidden;points=[[0,0.5],[1,0.5]];portConstraint=eastwest;rotatable=0;whiteSpace=wrap;html=1;" vertex="1" parent="pRyvSsuBSbEFiJc0szt9-25">
                    <mxGeometry y="140" width="140" height="30" as="geometry"/>
                </mxCell>
                <mxCell id="pRyvSsuBSbEFiJc0szt9-37" style="edgeStyle=none;html=1;exitX=0;exitY=0.5;exitDx=0;exitDy=0;entryX=1;entryY=0.5;entryDx=0;entryDy=0;endArrow=none;endFill=0;" edge="1" parent="1" source="pRyvSsuBSbEFiJc0szt9-11" target="pRyvSsuBSbEFiJc0szt9-42">
                    <mxGeometry relative="1" as="geometry">
                        <mxPoint x="119.4324324324325" y="492.4324324324324" as="targetPoint"/>
                    </mxGeometry>
                </mxCell>
                <mxCell id="pRyvSsuBSbEFiJc0szt9-38" style="edgeStyle=none;html=1;exitX=0;exitY=0.5;exitDx=0;exitDy=0;entryX=1;entryY=0.5;entryDx=0;entryDy=0;endArrow=none;endFill=0;" edge="1" parent="1" source="pRyvSsuBSbEFiJc0szt9-40" target="pRyvSsuBSbEFiJc0szt9-26">
                    <mxGeometry relative="1" as="geometry">
                        <mxPoint x="124" y="500" as="sourcePoint"/>
                        <mxPoint x="-26" y="516.8421052631579" as="targetPoint"/>
                    </mxGeometry>
                </mxCell>
                <mxCell id="pRyvSsuBSbEFiJc0szt9-39" value="Type of Contact" style="swimlane;fontStyle=0;childLayout=stackLayout;horizontal=1;startSize=20;horizontalStack=0;resizeParent=1;resizeParentMax=0;resizeLast=0;collapsible=1;marginBottom=0;whiteSpace=wrap;html=1;" vertex="1" parent="1">
                    <mxGeometry x="164" y="390" width="140" height="200" as="geometry"/>
                </mxCell>
                <mxCell id="pRyvSsuBSbEFiJc0szt9-40" value="typeID" style="text;strokeColor=none;fillColor=none;align=left;verticalAlign=middle;spacingLeft=4;spacingRight=4;overflow=hidden;points=[[0,0.5],[1,0.5]];portConstraint=eastwest;rotatable=0;whiteSpace=wrap;html=1;" vertex="1" parent="pRyvSsuBSbEFiJc0szt9-39">
                    <mxGeometry y="20" width="140" height="30" as="geometry"/>
                </mxCell>
                <mxCell id="pRyvSsuBSbEFiJc0szt9-41" value="JD ID" style="text;strokeColor=none;fillColor=none;align=left;verticalAlign=middle;spacingLeft=4;spacingRight=4;overflow=hidden;points=[[0,0.5],[1,0.5]];portConstraint=eastwest;rotatable=0;whiteSpace=wrap;html=1;" vertex="1" parent="pRyvSsuBSbEFiJc0szt9-39">
                    <mxGeometry y="50" width="140" height="30" as="geometry"/>
                </mxCell>
                <mxCell id="pRyvSsuBSbEFiJc0szt9-42" value="months" style="text;strokeColor=none;fillColor=none;align=left;verticalAlign=middle;spacingLeft=4;spacingRight=4;overflow=hidden;points=[[0,0.5],[1,0.5]];portConstraint=eastwest;rotatable=0;whiteSpace=wrap;html=1;" vertex="1" parent="pRyvSsuBSbEFiJc0szt9-39">
                    <mxGeometry y="80" width="140" height="30" as="geometry"/>
                </mxCell>
                <mxCell id="pRyvSsuBSbEFiJc0szt9-46" value="days" style="text;strokeColor=none;fillColor=none;align=left;verticalAlign=middle;spacingLeft=4;spacingRight=4;overflow=hidden;points=[[0,0.5],[1,0.5]];portConstraint=eastwest;rotatable=0;whiteSpace=wrap;html=1;" vertex="1" parent="pRyvSsuBSbEFiJc0szt9-39">
                    <mxGeometry y="110" width="140" height="30" as="geometry"/>
                </mxCell>
                <mxCell id="pRyvSsuBSbEFiJc0szt9-54" value="years" style="text;strokeColor=none;fillColor=none;align=left;verticalAlign=middle;spacingLeft=4;spacingRight=4;overflow=hidden;points=[[0,0.5],[1,0.5]];portConstraint=eastwest;rotatable=0;whiteSpace=wrap;html=1;" vertex="1" parent="pRyvSsuBSbEFiJc0szt9-39">
                    <mxGeometry y="140" width="140" height="30" as="geometry"/>
                </mxCell>
                <mxCell id="pRyvSsuBSbEFiJc0szt9-45" value="option" style="text;strokeColor=none;fillColor=none;align=left;verticalAlign=middle;spacingLeft=4;spacingRight=4;overflow=hidden;points=[[0,0.5],[1,0.5]];portConstraint=eastwest;rotatable=0;whiteSpace=wrap;html=1;" vertex="1" parent="pRyvSsuBSbEFiJc0szt9-39">
                    <mxGeometry y="170" width="140" height="30" as="geometry"/>
                </mxCell>
                <mxCell id="pRyvSsuBSbEFiJc0szt9-49" value="Job Settings" style="swimlane;fontStyle=0;childLayout=stackLayout;horizontal=1;startSize=20;horizontalStack=0;resizeParent=1;resizeParentMax=0;resizeLast=0;collapsible=1;marginBottom=0;whiteSpace=wrap;html=1;" vertex="1" parent="1">
                    <mxGeometry x="597" y="265" width="140" height="80" as="geometry"/>
                </mxCell>
                <mxCell id="pRyvSsuBSbEFiJc0szt9-50" value="JObID" style="text;strokeColor=none;fillColor=none;align=left;verticalAlign=middle;spacingLeft=4;spacingRight=4;overflow=hidden;points=[[0,0.5],[1,0.5]];portConstraint=eastwest;rotatable=0;whiteSpace=wrap;html=1;" vertex="1" parent="pRyvSsuBSbEFiJc0szt9-49">
                    <mxGeometry y="20" width="140" height="30" as="geometry"/>
                </mxCell>
                <mxCell id="pRyvSsuBSbEFiJc0szt9-51" value="visibiity" style="text;strokeColor=none;fillColor=none;align=left;verticalAlign=middle;spacingLeft=4;spacingRight=4;overflow=hidden;points=[[0,0.5],[1,0.5]];portConstraint=eastwest;rotatable=0;whiteSpace=wrap;html=1;" vertex="1" parent="pRyvSsuBSbEFiJc0szt9-49">
                    <mxGeometry y="50" width="140" height="30" as="geometry"/>
                </mxCell>
                <mxCell id="pRyvSsuBSbEFiJc0szt9-60" style="edgeStyle=none;html=1;exitX=0;exitY=0.5;exitDx=0;exitDy=0;entryX=0.75;entryY=0;entryDx=0;entryDy=0;endArrow=none;endFill=0;" edge="1" parent="1" source="pRyvSsuBSbEFiJc0szt9-4" target="pRyvSsuBSbEFiJc0szt9-5">
                    <mxGeometry relative="1" as="geometry"/>
                </mxCell>
                <mxCell id="pRyvSsuBSbEFiJc0szt9-61" style="edgeStyle=none;html=1;exitX=1;exitY=0.5;exitDx=0;exitDy=0;endArrow=none;endFill=0;" edge="1" parent="1" source="pRyvSsuBSbEFiJc0szt9-6" target="pRyvSsuBSbEFiJc0szt9-49">
                    <mxGeometry relative="1" as="geometry"/>
                </mxCell>
            </root>
        </mxGraphModel>
    </diagram>
    <diagram id="UcP0DT78USqlWTuflKzw" name="Forms Page">
        <mxGraphModel dx="1543" dy="404" grid="1" gridSize="10" guides="1" tooltips="1" connect="1" arrows="1" fold="1" page="1" pageScale="1" pageWidth="850" pageHeight="1100" math="0" shadow="0">
            <root>
                <mxCell id="0"/>
                <mxCell id="1" parent="0"/>
                <mxCell id="SDtTBkAKjrlMHbxqce_j-1" value="Job" style="swimlane;fontStyle=0;childLayout=stackLayout;horizontal=1;startSize=20;horizontalStack=0;resizeParent=1;resizeParentMax=0;resizeLast=0;collapsible=1;marginBottom=0;whiteSpace=wrap;html=1;" vertex="1" parent="1">
                    <mxGeometry x="370" y="270" width="140" height="50" as="geometry"/>
                </mxCell>
                <mxCell id="SDtTBkAKjrlMHbxqce_j-2" value="JobID" style="text;strokeColor=none;fillColor=none;align=left;verticalAlign=middle;spacingLeft=4;spacingRight=4;overflow=hidden;points=[[0,0.5],[1,0.5]];portConstraint=eastwest;rotatable=0;whiteSpace=wrap;html=1;" vertex="1" parent="SDtTBkAKjrlMHbxqce_j-1">
                    <mxGeometry y="20" width="140" height="30" as="geometry"/>
                </mxCell>
                <mxCell id="SDtTBkAKjrlMHbxqce_j-3" value="Form" style="swimlane;fontStyle=0;childLayout=stackLayout;horizontal=1;startSize=20;horizontalStack=0;resizeParent=1;resizeParentMax=0;resizeLast=0;collapsible=1;marginBottom=0;whiteSpace=wrap;html=1;" vertex="1" parent="1">
                    <mxGeometry x="347" y="390" width="140" height="170" as="geometry"/>
                </mxCell>
                <mxCell id="SDtTBkAKjrlMHbxqce_j-4" value="JD ID" style="text;strokeColor=none;fillColor=none;align=left;verticalAlign=middle;spacingLeft=4;spacingRight=4;overflow=hidden;points=[[0,0.5],[1,0.5]];portConstraint=eastwest;rotatable=0;whiteSpace=wrap;html=1;" vertex="1" parent="SDtTBkAKjrlMHbxqce_j-3">
                    <mxGeometry y="20" width="140" height="30" as="geometry"/>
                </mxCell>
                <mxCell id="SDtTBkAKjrlMHbxqce_j-5" value="country" style="text;strokeColor=none;fillColor=none;align=left;verticalAlign=middle;spacingLeft=4;spacingRight=4;overflow=hidden;points=[[0,0.5],[1,0.5]];portConstraint=eastwest;rotatable=0;whiteSpace=wrap;html=1;" vertex="1" parent="SDtTBkAKjrlMHbxqce_j-3">
                    <mxGeometry y="50" width="140" height="30" as="geometry"/>
                </mxCell>
                <mxCell id="SDtTBkAKjrlMHbxqce_j-6" value="type of contract" style="text;strokeColor=none;fillColor=none;align=left;verticalAlign=middle;spacingLeft=4;spacingRight=4;overflow=hidden;points=[[0,0.5],[1,0.5]];portConstraint=eastwest;rotatable=0;whiteSpace=wrap;html=1;" vertex="1" parent="SDtTBkAKjrlMHbxqce_j-3">
                    <mxGeometry y="80" width="140" height="30" as="geometry"/>
                </mxCell>
                <mxCell id="SDtTBkAKjrlMHbxqce_j-7" value="JD to post&amp;nbsp; as html" style="text;strokeColor=none;fillColor=none;align=left;verticalAlign=middle;spacingLeft=4;spacingRight=4;overflow=hidden;points=[[0,0.5],[1,0.5]];portConstraint=eastwest;rotatable=0;whiteSpace=wrap;html=1;" vertex="1" parent="SDtTBkAKjrlMHbxqce_j-3">
                    <mxGeometry y="110" width="140" height="30" as="geometry"/>
                </mxCell>
                <mxCell id="SDtTBkAKjrlMHbxqce_j-8" value="requirements" style="text;strokeColor=none;fillColor=none;align=left;verticalAlign=middle;spacingLeft=4;spacingRight=4;overflow=hidden;points=[[0,0.5],[1,0.5]];portConstraint=eastwest;rotatable=0;whiteSpace=wrap;html=1;" vertex="1" parent="SDtTBkAKjrlMHbxqce_j-3">
                    <mxGeometry y="140" width="140" height="30" as="geometry"/>
                </mxCell>
                <mxCell id="SDtTBkAKjrlMHbxqce_j-15" style="edgeStyle=none;html=1;exitX=0.336;exitY=1.1;exitDx=0;exitDy=0;entryX=0.5;entryY=0;entryDx=0;entryDy=0;endArrow=none;endFill=0;exitPerimeter=0;" edge="1" parent="1" source="SDtTBkAKjrlMHbxqce_j-2" target="SDtTBkAKjrlMHbxqce_j-3">
                    <mxGeometry relative="1" as="geometry">
                        <mxPoint x="370" y="295" as="sourcePoint"/>
                    </mxGeometry>
                </mxCell>
                <mxCell id="SDtTBkAKjrlMHbxqce_j-16" value="Type of Contact" style="swimlane;fontStyle=0;childLayout=stackLayout;horizontal=1;startSize=20;horizontalStack=0;resizeParent=1;resizeParentMax=0;resizeLast=0;collapsible=1;marginBottom=0;whiteSpace=wrap;html=1;" vertex="1" parent="1">
                    <mxGeometry x="-16" y="360" width="140" height="170" as="geometry"/>
                </mxCell>
                <mxCell id="SDtTBkAKjrlMHbxqce_j-17" value="typeID" style="text;strokeColor=none;fillColor=none;align=left;verticalAlign=middle;spacingLeft=4;spacingRight=4;overflow=hidden;points=[[0,0.5],[1,0.5]];portConstraint=eastwest;rotatable=0;whiteSpace=wrap;html=1;" vertex="1" parent="SDtTBkAKjrlMHbxqce_j-16">
                    <mxGeometry y="20" width="140" height="30" as="geometry"/>
                </mxCell>
                <mxCell id="SDtTBkAKjrlMHbxqce_j-18" value="type" style="text;strokeColor=none;fillColor=none;align=left;verticalAlign=middle;spacingLeft=4;spacingRight=4;overflow=hidden;points=[[0,0.5],[1,0.5]];portConstraint=eastwest;rotatable=0;whiteSpace=wrap;html=1;" vertex="1" parent="SDtTBkAKjrlMHbxqce_j-16">
                    <mxGeometry y="50" width="140" height="30" as="geometry"/>
                </mxCell>
                <mxCell id="SDtTBkAKjrlMHbxqce_j-19" value="name" style="text;strokeColor=none;fillColor=none;align=left;verticalAlign=middle;spacingLeft=4;spacingRight=4;overflow=hidden;points=[[0,0.5],[1,0.5]];portConstraint=eastwest;rotatable=0;whiteSpace=wrap;html=1;" vertex="1" parent="SDtTBkAKjrlMHbxqce_j-16">
                    <mxGeometry y="80" width="140" height="30" as="geometry"/>
                </mxCell>
                <mxCell id="SDtTBkAKjrlMHbxqce_j-20" value="options" style="text;strokeColor=none;fillColor=none;align=left;verticalAlign=middle;spacingLeft=4;spacingRight=4;overflow=hidden;points=[[0,0.5],[1,0.5]];portConstraint=eastwest;rotatable=0;whiteSpace=wrap;html=1;" vertex="1" parent="SDtTBkAKjrlMHbxqce_j-16">
                    <mxGeometry y="110" width="140" height="30" as="geometry"/>
                </mxCell>
                <mxCell id="SDtTBkAKjrlMHbxqce_j-21" value="duration" style="text;strokeColor=none;fillColor=none;align=left;verticalAlign=middle;spacingLeft=4;spacingRight=4;overflow=hidden;points=[[0,0.5],[1,0.5]];portConstraint=eastwest;rotatable=0;whiteSpace=wrap;html=1;" vertex="1" parent="SDtTBkAKjrlMHbxqce_j-16">
                    <mxGeometry y="140" width="140" height="30" as="geometry"/>
                </mxCell>
                <mxCell id="SDtTBkAKjrlMHbxqce_j-22" style="edgeStyle=none;html=1;exitX=0;exitY=0.5;exitDx=0;exitDy=0;entryX=1;entryY=0.5;entryDx=0;entryDy=0;endArrow=none;endFill=0;" edge="1" parent="1" source="SDtTBkAKjrlMHbxqce_j-6" target="SDtTBkAKjrlMHbxqce_j-27">
                    <mxGeometry relative="1" as="geometry">
                        <mxPoint x="119.4324324324325" y="492.4324324324324" as="targetPoint"/>
                    </mxGeometry>
                </mxCell>
                <mxCell id="SDtTBkAKjrlMHbxqce_j-23" style="edgeStyle=none;html=1;exitX=0;exitY=0.5;exitDx=0;exitDy=0;entryX=1;entryY=0.5;entryDx=0;entryDy=0;endArrow=none;endFill=0;" edge="1" parent="1" source="SDtTBkAKjrlMHbxqce_j-25" target="SDtTBkAKjrlMHbxqce_j-18">
                    <mxGeometry relative="1" as="geometry">
                        <mxPoint x="124" y="500" as="sourcePoint"/>
                        <mxPoint x="-26" y="516.8421052631579" as="targetPoint"/>
                    </mxGeometry>
                </mxCell>
                <mxCell id="SDtTBkAKjrlMHbxqce_j-24" value="Question" style="swimlane;fontStyle=0;childLayout=stackLayout;horizontal=1;startSize=20;horizontalStack=0;resizeParent=1;resizeParentMax=0;resizeLast=0;collapsible=1;marginBottom=0;whiteSpace=wrap;html=1;" vertex="1" parent="1">
                    <mxGeometry x="164" y="390" width="140" height="200" as="geometry"/>
                </mxCell>
                <mxCell id="SDtTBkAKjrlMHbxqce_j-25" value="typeID" style="text;strokeColor=none;fillColor=none;align=left;verticalAlign=middle;spacingLeft=4;spacingRight=4;overflow=hidden;points=[[0,0.5],[1,0.5]];portConstraint=eastwest;rotatable=0;whiteSpace=wrap;html=1;" vertex="1" parent="SDtTBkAKjrlMHbxqce_j-24">
                    <mxGeometry y="20" width="140" height="30" as="geometry"/>
                </mxCell>
                <mxCell id="SDtTBkAKjrlMHbxqce_j-26" value="JD ID" style="text;strokeColor=none;fillColor=none;align=left;verticalAlign=middle;spacingLeft=4;spacingRight=4;overflow=hidden;points=[[0,0.5],[1,0.5]];portConstraint=eastwest;rotatable=0;whiteSpace=wrap;html=1;" vertex="1" parent="SDtTBkAKjrlMHbxqce_j-24">
                    <mxGeometry y="50" width="140" height="30" as="geometry"/>
                </mxCell>
                <mxCell id="SDtTBkAKjrlMHbxqce_j-27" value="months" style="text;strokeColor=none;fillColor=none;align=left;verticalAlign=middle;spacingLeft=4;spacingRight=4;overflow=hidden;points=[[0,0.5],[1,0.5]];portConstraint=eastwest;rotatable=0;whiteSpace=wrap;html=1;" vertex="1" parent="SDtTBkAKjrlMHbxqce_j-24">
                    <mxGeometry y="80" width="140" height="30" as="geometry"/>
                </mxCell>
                <mxCell id="SDtTBkAKjrlMHbxqce_j-28" value="days" style="text;strokeColor=none;fillColor=none;align=left;verticalAlign=middle;spacingLeft=4;spacingRight=4;overflow=hidden;points=[[0,0.5],[1,0.5]];portConstraint=eastwest;rotatable=0;whiteSpace=wrap;html=1;" vertex="1" parent="SDtTBkAKjrlMHbxqce_j-24">
                    <mxGeometry y="110" width="140" height="30" as="geometry"/>
                </mxCell>
                <mxCell id="SDtTBkAKjrlMHbxqce_j-29" value="years" style="text;strokeColor=none;fillColor=none;align=left;verticalAlign=middle;spacingLeft=4;spacingRight=4;overflow=hidden;points=[[0,0.5],[1,0.5]];portConstraint=eastwest;rotatable=0;whiteSpace=wrap;html=1;" vertex="1" parent="SDtTBkAKjrlMHbxqce_j-24">
                    <mxGeometry y="140" width="140" height="30" as="geometry"/>
                </mxCell>
                <mxCell id="SDtTBkAKjrlMHbxqce_j-30" value="option" style="text;strokeColor=none;fillColor=none;align=left;verticalAlign=middle;spacingLeft=4;spacingRight=4;overflow=hidden;points=[[0,0.5],[1,0.5]];portConstraint=eastwest;rotatable=0;whiteSpace=wrap;html=1;" vertex="1" parent="SDtTBkAKjrlMHbxqce_j-24">
                    <mxGeometry y="170" width="140" height="30" as="geometry"/>
                </mxCell>
            </root>
        </mxGraphModel>
    </diagram>
</mxfile>